<?xml version="1.0" encoding="utf-8"?>
<!-- Generator: Adobe Illustrator 15.0.0, SVG Export Plug-In . SVG Version: 6.00 Build 0)  -->
<!DOCTYPE svg PUBLIC "-//W3C//DTD SVG 1.0//EN" "http://www.w3.org/TR/2001/REC-SVG-20010904/DTD/svg10.dtd" [
	<!ENTITY ns_flows "http://ns.adobe.com/Flows/1.0/">
	<!ENTITY ns_extend "http://ns.adobe.com/Extensibility/1.0/">
	<!ENTITY ns_ai "http://ns.adobe.com/AdobeIllustrator/10.0/">
	<!ENTITY ns_graphs "http://ns.adobe.com/Graphs/1.0/">
]>
<svg version="1.0" id="Layer_1" xmlns:x="&ns_extend;" xmlns:i="&ns_ai;" xmlns:graph="&ns_graphs;"
	 xmlns="http://www.w3.org/2000/svg" xmlns:xlink="http://www.w3.org/1999/xlink" xmlns:a="http://ns.adobe.com/AdobeSVGViewerExtensions/3.0/"
	 x="0px" y="0px" width="250px" height="54.167px" viewBox="25 5.416 250 54.167" enable-background="new 25 5.416 250 54.167"
	 xml:space="preserve">
<g>
	<path fill="#231F20" d="M40.602,31.091c-0.064,0.208-0.188,0.392-0.375,0.584c-0.179,0.177-0.516,0.391-0.977,0.629
		c-0.634,0.298-1.272,0.58-1.903,0.864c-0.641,0.294-1.212,0.646-1.708,1.082c-0.516,0.438-0.917,0.968-1.225,1.606
		c-0.328,0.635-0.48,1.458-0.48,2.463c0,0.396,0.024,0.87,0.071,1.396c0.056,0.541,0.188,1.064,0.409,1.561
		c0.212,0.492,0.538,0.926,0.968,1.279c0.433,0.348,1.038,0.523,1.803,0.523c0.44,0,0.87-0.087,1.292-0.296
		c0.417-0.191,0.787-0.519,1.125-0.926c0.333-0.421,0.605-0.974,0.806-1.663c0.195-0.678,0.292-1.517,0.292-2.481v-6.621
		L40.602,31.091L40.602,31.091z M48.782,43.958c-0.885,0.125-1.708,0.188-2.476,0.188c-1.698,0-2.962-0.287-3.774-0.9
		c-0.811-0.602-1.333-1.434-1.535-2.504h-0.089c-0.533,1.328-1.275,2.251-2.202,2.71c-0.94,0.472-2.3,0.694-4.08,0.694
		c-0.803,0-1.611-0.084-2.45-0.237c-0.836-0.177-1.626-0.438-2.321-0.816c-0.706-0.354-1.272-0.867-1.713-1.512
		c-0.436-0.646-0.643-1.445-0.643-2.378c0-0.972,0.18-1.771,0.571-2.424c0.389-0.649,0.889-1.202,1.507-1.654
		c0.626-0.447,1.327-0.806,2.125-1.086c0.783-0.294,1.591-0.563,2.423-0.84c1.378-0.398,2.495-0.74,3.35-1.026
		c0.841-0.283,1.509-0.575,1.981-0.884c0.461-0.325,0.792-0.689,0.971-1.081c0.185-0.398,0.27-0.916,0.27-1.556v-3.045
		c0-0.905-0.209-1.721-0.64-2.456c-0.439-0.734-1.257-1.098-2.456-1.098c-0.778,0-1.453,0.182-2.02,0.524
		c-0.566,0.353-0.849,1-0.849,1.938c0,0.094,0.011,0.265,0.054,0.514c0.039,0.243,0.062,0.536,0.106,0.827
		c0.033,0.298,0.058,0.59,0.094,0.855c0.029,0.265,0.046,0.442,0.046,0.542c0,0.501-0.108,0.888-0.35,1.181
		c-0.225,0.282-0.513,0.497-0.822,0.624c-0.318,0.131-0.658,0.204-0.998,0.22c-0.364,0.028-0.665,0.028-0.894,0.028
		c-0.33,0-0.672-0.028-1.022-0.067c-0.352-0.066-0.663-0.182-0.925-0.364c-0.274-0.178-0.497-0.436-0.684-0.769
		c-0.185-0.335-0.28-0.788-0.28-1.351c0-0.854,0.249-1.633,0.735-2.317c0.482-0.689,1.123-1.252,1.927-1.699
		c0.81-0.452,1.71-0.801,2.737-1.017c1.029-0.254,2.07-0.364,3.185-0.364c1.269,0,2.463,0.088,3.584,0.299
		c1.118,0.197,2.083,0.562,2.899,1.092c0.825,0.546,1.483,1.269,1.957,2.18c0.486,0.926,0.729,2.079,0.729,3.481v12.398
		c0,0.645,0.089,1.203,0.272,1.688c0.189,0.485,0.641,0.724,1.378,0.724c0.44,0,0.793-0.084,1.078-0.248
		c0.284-0.171,0.569-0.41,0.833-0.706l0.453,0.445C50.365,43.411,49.666,43.824,48.782,43.958"/>
	<path fill="#231F20" d="M66.219,42.848c0,0-5.065-0.009-5.513-0.009c-0.569,0-1.071-0.228-1.407-0.455
		c-0.583-0.393-0.988-1.225-1.147-3.027c-0.044-0.446-0.104-0.906-0.104-1.415V22.704h8.171V42.848z M100.612,42.848V29.142
		c0-0.612-0.038-1.347-0.117-2.213c-0.088-0.859-0.365-1.71-0.828-2.483c-0.469-0.783-1.208-1.467-2.25-2.041
		c-1.038-0.563-2.496-0.844-4.393-0.844c-0.375,0-0.838,0.038-1.401,0.126c-0.573,0.078-1.168,0.265-1.81,0.546
		c-0.624,0.271-1.258,0.673-1.877,1.198c-0.605,0.518-1.169,1.236-1.672,2.135c-0.258-0.468-0.557-0.933-0.866-1.407
		c-0.32-0.458-0.751-0.888-1.258-1.274c-0.508-0.392-1.159-0.711-1.949-0.961c-0.788-0.237-1.766-0.363-2.924-0.363
		c-1.104,0-2.047,0.159-2.825,0.434c-0.783,0.309-1.451,0.674-2.003,1.071c-0.541,0.431-0.994,0.851-1.324,1.314
		c-0.337,0.441-0.602,0.839-0.806,1.181h-0.054v-3.565l-14.208-0.004v-6.483c-0.502,0.205-1.004,0.375-1.522,0.508
		c-0.52,0.133-1.033,0.204-1.53,0.204c-0.494,0-1.014-0.071-1.525-0.204c-0.524-0.133-1.021-0.304-1.518-0.508v6.484h-3.375v0.713
		h3.375V37.46c0,0.301,0.044,1.113,0.13,1.477c0.528,2.264,2.333,4.597,6.874,4.597c0.542,0,16.322,0.006,16.322,0.006V42.85h-2.969
		V30.594c0-0.85,0.034-1.556,0.079-2.152c0.06-0.585,0.13-1.092,0.252-1.556c0.116-0.441,0.265-0.849,0.475-1.208
		c0.198-0.347,0.436-0.684,0.701-1.009c0.998-1.182,2.173-1.777,3.492-1.777c0.773,0,1.479,0.298,2.108,0.896
		c0.635,0.567,0.939,1.61,0.939,3.078V42.85h-3.001v0.689h12.073V42.85h-2.958V28.022c0-0.909,0.167-1.683,0.519-2.345
		c0.353-0.645,0.777-1.176,1.269-1.573c0.513-0.403,1.026-0.711,1.556-0.904c0.541-0.2,0.992-0.31,1.357-0.31
		c1.204,0,2.053,0.38,2.56,1.142c0.525,0.746,0.783,1.821,0.783,3.229V42.85h-2.958v0.689h12.372V42.85h-3.314V42.848z"/>
	<path fill="#231F20" d="M118.555,42.623c0.741-0.612,1.285-1.437,1.64-2.434c0.352-1,0.573-2.158,0.656-3.466
		c0.084-1.303,0.127-2.621,0.127-3.968c0-1.334-0.043-2.637-0.127-3.917c-0.082-1.301-0.303-2.439-0.656-3.443
		c-0.354-1.01-0.899-1.815-1.64-2.439c-0.745-0.607-1.771-0.939-3.073-0.939c-1.313,0-2.339,0.331-3.074,0.939
		c-0.744,0.624-1.292,1.429-1.644,2.439c-0.359,1.004-0.581,2.142-0.658,3.443c-0.087,1.28-0.121,2.583-0.121,3.917
		c0,1.342,0.033,2.665,0.121,3.968c0.077,1.308,0.298,2.466,0.658,3.466c0.352,0.997,0.899,1.82,1.644,2.434
		c0.734,0.617,1.761,0.916,3.074,0.916C116.784,43.538,117.81,43.24,118.555,42.623 M120.332,22.285
		c1.489,0.612,2.787,1.444,3.901,2.472c1.104,1.041,1.964,2.256,2.593,3.636c0.607,1.39,0.928,2.857,0.928,4.397
		c0,1.573-0.321,3.051-0.928,4.442c-0.629,1.379-1.489,2.589-2.593,3.619c-1.114,1.047-2.412,1.865-3.901,2.466
		c-1.496,0.605-3.112,0.893-4.85,0.893c-1.744,0-3.366-0.287-4.867-0.893c-1.468-0.601-2.786-1.419-3.891-2.466
		c-1.103-1.03-1.964-2.24-2.587-3.619c-0.618-1.392-0.926-2.869-0.926-4.442c0-1.54,0.309-3.007,0.926-4.397
		c0.624-1.38,1.484-2.595,2.587-3.636c1.104-1.027,2.422-1.86,3.891-2.472c1.501-0.619,3.123-0.928,4.867-0.928
		C117.22,21.357,118.836,21.666,120.332,22.285"/>
	<path fill="#231F20" d="M129.553,36.3c0.414,0.933,0.817,1.824,1.247,2.703c0.419,0.877,0.905,1.638,1.479,2.3
		c0.573,0.675,1.252,1.221,2.053,1.646c0.816,0.413,1.81,0.617,2.985,0.617c0.293,0,0.713-0.027,1.208-0.049
		c0.502-0.034,1-0.184,1.486-0.433c0.49-0.236,0.91-0.628,1.263-1.152c0.348-0.508,0.523-1.259,0.523-2.23
		c0-0.292-0.044-0.601-0.126-0.92c-0.089-0.32-0.26-0.635-0.53-0.978c-0.265-0.342-0.672-0.667-1.192-0.982
		c-0.513-0.32-1.235-0.652-2.147-0.973l-4.087-1.506c-0.464-0.17-0.978-0.386-1.512-0.683c-0.53-0.281-1.038-0.65-1.496-1.12
		c-0.458-0.47-0.839-1.027-1.135-1.684c-0.298-0.651-0.452-1.429-0.452-2.339c0-0.959,0.209-1.887,0.602-2.765
		c0.42-0.839,0.982-1.617,1.7-2.267c0.727-0.651,1.599-1.159,2.614-1.562c1.021-0.375,2.142-0.567,3.339-0.567
		c0.634,0,1.235,0.066,1.781,0.205c0.558,0.126,1.049,0.27,1.502,0.424c0.451,0.138,0.86,0.298,1.208,0.419
		c0.354,0.133,0.624,0.197,0.822,0.197c0.37,0,0.607-0.065,0.717-0.197c0.089-0.121,0.199-0.188,0.276-0.354h0.711l-0.05,6.026
		h-0.651c-0.331-0.816-0.673-1.578-1.027-2.323c-0.354-0.723-0.761-1.374-1.252-1.915c-0.48-0.546-1.082-0.983-1.781-1.313
		c-0.696-0.31-1.556-0.475-2.604-0.475c-1.105,0-2.12,0.298-3.029,0.884c-0.928,0.583-1.385,1.445-1.385,2.587
		c0,0.226,0.021,0.501,0.099,0.795c0.065,0.292,0.22,0.612,0.452,0.933c0.237,0.313,0.601,0.639,1.104,0.949
		c0.506,0.319,1.181,0.628,2.02,0.933l4.27,1.451c1.811,0.639,3.19,1.467,4.127,2.504c0.942,1.038,1.404,2.357,1.404,3.957
		c0,1.109-0.242,2.113-0.728,2.985c-0.475,0.889-1.129,1.645-1.901,2.262c-0.795,0.631-1.706,1.099-2.748,1.431
		c-1.048,0.33-2.113,0.484-3.222,0.484c-0.597,0-1.248-0.06-1.942-0.187c-0.706-0.144-1.39-0.298-2.041-0.48
		c-0.652-0.177-1.252-0.336-1.789-0.47c-0.534-0.13-0.953-0.203-1.263-0.203c-0.265,0-0.459,0.056-0.574,0.155
		c-0.117,0.1-0.209,0.28-0.326,0.545h-0.706V36.3H129.553L129.553,36.3z"/>
	<path fill="#231F20" d="M154.905,36.25c0.088,1.253,0.329,2.428,0.738,3.52c0.398,1.082,0.993,1.969,1.788,2.699
		c0.782,0.712,1.876,1.069,3.3,1.069c0.926,0,1.688-0.237,2.241-0.739c0.551-0.509,0.959-1.221,1.258-2.159
		c0.297-0.938,0.484-2.069,0.551-3.388c0.088-1.318,0.134-2.796,0.134-4.441c0-1.998-0.078-3.703-0.232-5.077
		c-0.155-1.395-0.408-2.515-0.783-3.349c-0.354-0.833-0.849-1.439-1.401-1.805c-0.573-0.364-1.302-0.563-2.174-0.563
		c-1.235,0-2.217,0.365-2.969,1.059c-0.74,0.708-1.292,1.595-1.666,2.671c-0.363,1.071-0.606,2.234-0.729,3.498
		c-0.11,1.28-0.166,2.47-0.166,3.564C154.794,33.854,154.826,34.996,154.905,36.25 M146.396,22.757v-0.706h8.322v3.702h0.077
		c1.026-2.918,3.013-4.397,5.926-4.397c1.942,0,3.599,0.375,4.978,1.119c1.38,0.762,2.506,1.712,3.399,2.833
		c0.883,1.146,1.545,2.383,1.943,3.706c0.43,1.352,0.639,2.604,0.639,3.775c0,1.488-0.266,2.952-0.793,4.313
		c-0.542,1.369-1.28,2.583-2.242,3.637c-0.948,1.043-2.097,1.897-3.432,2.522c-1.347,0.645-2.824,0.948-4.47,0.948
		c-1.544,0-2.771-0.407-3.718-1.23c-0.928-0.849-1.636-1.843-2.099-3.017h-0.132v16.905h3.39v0.691H145.37v-0.691h3.312V22.757
		H146.396z"/>
	<path fill="#231F20" d="M212.964,26.896c0-0.363-0.013-0.816-0.034-1.345c-0.043-0.532-0.165-1.071-0.354-1.618
		c-0.21-0.535-0.54-0.987-0.981-1.352c-0.474-0.364-1.093-0.563-1.898-0.563c-1.147,0-2.019,0.287-2.639,0.818
		c-0.618,0.53-1.092,1.219-1.39,2.024c-0.288,0.816-0.497,1.716-0.573,2.665c-0.067,0.95-0.145,1.86-0.178,2.737h8.046
		L212.964,26.896L212.964,26.896z M204.919,33.209c0,1.197,0.056,2.421,0.155,3.65c0.099,1.222,0.363,2.33,0.804,3.308
		c0.442,0.992,1.071,1.793,1.91,2.442c0.838,0.636,2.02,0.955,3.532,0.955c1.346,0,2.473-0.248,3.399-0.762
		c0.914-0.491,1.677-1.076,2.261-1.739c0.586-0.645,1.028-1.29,1.304-1.924c0.297-0.629,0.45-1.109,0.474-1.407l0.718,0.248
		c-0.166,0.635-0.464,1.313-0.872,2.03c-0.376,0.729-0.938,1.397-1.646,2.02c-0.707,0.623-1.577,1.138-2.614,1.563
		c-1.036,0.419-2.306,0.616-3.774,0.616c-1.732,0-3.365-0.252-4.867-0.777c-1.522-0.513-2.836-1.269-3.95-2.257
		c-1.136-0.988-2.008-2.186-2.648-3.618c-0.63-1.43-0.96-3.06-0.96-4.857c0-1.446,0.309-2.836,0.916-4.226
		c0.596-1.369,1.424-2.576,2.483-3.643c1.058-1.047,2.285-1.908,3.719-2.566c1.413-0.644,2.959-0.976,4.591-0.976
		c1.171,0,2.339,0.176,3.51,0.552c1.181,0.364,2.23,0.939,3.178,1.711c0.928,0.767,1.688,1.756,2.298,2.99
		c0.595,1.226,0.902,2.693,0.902,4.399h-14.82L204.919,33.209L204.919,33.209z"/>
	<path fill="#231F20" d="M229.263,22.052v4.216h0.055c0.595-1.258,1.412-2.361,2.438-3.277c1.005-0.916,2.362-1.368,4.039-1.368
		c1.402,0,2.539,0.369,3.421,1.125c0.861,0.75,1.305,1.793,1.305,3.123c0,0.993-0.244,1.776-0.731,2.345
		c-0.485,0.569-1.268,0.845-2.351,0.845c-0.76,0-1.466-0.156-2.096-0.475c-0.641-0.311-0.949-0.905-0.949-1.766
		c0-0.11,0.021-0.287,0.044-0.529c0.022-0.253,0.077-0.536,0.121-0.816c0.056-0.276,0.089-0.53,0.12-0.778
		c0.047-0.225,0.068-0.364,0.068-0.396c-0.046-0.266-0.099-0.476-0.154-0.624c-0.079-0.149-0.178-0.288-0.332-0.403
		c-0.154-0.104-0.374-0.176-0.673-0.176c-0.331,0-0.751,0.171-1.259,0.481c-0.498,0.309-0.972,0.771-1.412,1.379
		c-0.431,0.607-0.807,1.335-1.126,2.179c-0.309,0.856-0.474,1.816-0.474,2.881v12.835h3.974v0.688h-13.332v-0.688h3.267V22.757
		h-3.267v-0.706H229.263z"/>
	<path fill="#231F20" d="M254.887,26.896c0-0.363-0.022-0.816-0.043-1.345c-0.034-0.532-0.156-1.071-0.364-1.618
		c-0.188-0.535-0.519-0.987-0.973-1.352c-0.451-0.364-1.082-0.563-1.896-0.563c-1.137,0-2.021,0.287-2.628,0.818
		c-0.617,0.53-1.08,1.219-1.389,2.024c-0.289,0.816-0.486,1.716-0.575,2.665c-0.087,0.95-0.133,1.86-0.176,2.737h8.044V26.896
		L254.887,26.896z M246.843,33.209c0,1.197,0.043,2.421,0.153,3.65c0.1,1.222,0.355,2.33,0.807,3.308
		c0.442,0.992,1.081,1.793,1.91,2.442c0.839,0.636,2.02,0.955,3.53,0.955c1.335,0,2.473-0.248,3.388-0.762
		c0.928-0.491,1.679-1.076,2.274-1.739c0.597-0.645,1.026-1.29,1.302-1.924c0.285-0.629,0.451-1.109,0.496-1.407l0.695,0.248
		c-0.176,0.635-0.452,1.313-0.849,2.03c-0.42,0.729-0.959,1.397-1.656,2.02c-0.717,0.623-1.588,1.138-2.626,1.563
		c-1.037,0.419-2.296,0.616-3.763,0.616c-1.744,0-3.387-0.252-4.878-0.777c-1.522-0.513-2.838-1.269-3.962-2.257
		c-1.125-0.988-1.998-2.186-2.639-3.618c-0.629-1.43-0.949-3.06-0.949-4.857c0-1.446,0.298-2.836,0.906-4.226
		c0.584-1.369,1.424-2.576,2.483-3.643c1.047-1.047,2.284-1.908,3.719-2.566c1.401-0.644,2.946-0.976,4.591-0.976
		c1.169,0,2.339,0.176,3.509,0.552c1.17,0.364,2.24,0.939,3.179,1.711c0.928,0.767,1.698,1.756,2.296,2.99
		c0.596,1.226,0.915,2.693,0.915,4.399h-14.831L246.843,33.209L246.843,33.209z"/>
	<path fill="#231F20" d="M174.105,42.839V8.142h-3.31V7.441h9.368v19.434h0.1c0.121-0.31,0.364-0.74,0.684-1.324
		c0.321-0.58,0.795-1.17,1.437-1.756c0.629-0.579,1.444-1.092,2.416-1.511c1.004-0.443,2.24-0.652,3.752-0.652
		c2.206,0,3.929,0.629,5.143,1.898s1.844,3.002,1.844,5.208v14.108h3.354v0.69h-12.537v-0.69h3.101V27.051
		c0-1.401-0.275-2.429-0.848-3.073c-0.574-0.651-1.357-0.978-2.329-0.978c-0.809,0-1.579,0.189-2.318,0.575
		c-0.739,0.375-1.392,0.948-1.954,1.726c-0.55,0.762-0.992,1.711-1.334,2.848c-0.343,1.135-0.509,2.467-0.509,4v10.699h3.168v0.69
		h-12.536v-0.699H174.105z"/>
	<path fill="#231F20" d="M269.056,11.591c0.696,0.292,1.294,0.696,1.811,1.214c0.508,0.514,0.917,1.121,1.193,1.805
		c0.298,0.701,0.44,1.446,0.44,2.246c0,0.805-0.143,1.549-0.44,2.241c-0.274,0.69-0.685,1.291-1.193,1.804
		c-0.517,0.507-1.114,0.91-1.811,1.196c-0.693,0.294-1.444,0.431-2.25,0.431c-0.807,0-1.556-0.138-2.263-0.431
		c-0.685-0.286-1.28-0.689-1.799-1.196c-0.508-0.513-0.905-1.115-1.191-1.804c-0.3-0.691-0.44-1.436-0.44-2.241
		c0-0.8,0.141-1.544,0.44-2.246c0.286-0.684,0.683-1.291,1.191-1.805c0.519-0.518,1.114-0.921,1.799-1.214
		c0.707-0.288,1.456-0.436,2.263-0.436C267.611,11.154,268.362,11.303,269.056,11.591z M264.885,12.352
		c-0.584,0.253-1.091,0.597-1.522,1.038c-0.432,0.441-0.763,0.959-1.016,1.544c-0.232,0.596-0.354,1.237-0.354,1.921
		c0,0.674,0.122,1.317,0.354,1.908c0.253,0.597,0.584,1.108,1.016,1.546c0.432,0.441,0.938,0.788,1.522,1.048
		c0.586,0.253,1.226,0.386,1.921,0.386c0.685,0,1.313-0.132,1.909-0.386c0.585-0.26,1.092-0.607,1.522-1.048
		c0.42-0.438,0.761-0.949,1.016-1.546c0.233-0.591,0.354-1.235,0.354-1.908c0-0.684-0.121-1.324-0.354-1.921
		c-0.255-0.585-0.596-1.104-1.016-1.544c-0.431-0.441-0.938-0.785-1.522-1.038c-0.596-0.253-1.225-0.385-1.909-0.385
		C266.11,11.966,265.472,12.098,264.885,12.352z M264.731,20.139v-6.577h2.527c0.749,0,1.29,0.154,1.632,0.468
		c0.355,0.31,0.521,0.761,0.521,1.352c0,0.293-0.046,0.537-0.145,0.756c-0.077,0.216-0.199,0.387-0.353,0.542
		c-0.144,0.143-0.321,0.26-0.532,0.347c-0.187,0.094-0.406,0.154-0.628,0.198l1.964,2.915h-0.949l-1.853-2.915h-1.368v2.915H264.731
		z M267.345,16.512c0.244-0.021,0.454-0.06,0.642-0.132c0.176-0.078,0.33-0.188,0.44-0.347c0.11-0.16,0.166-0.375,0.166-0.652
		c0-0.225-0.046-0.424-0.122-0.567c-0.089-0.143-0.208-0.255-0.353-0.342c-0.156-0.089-0.32-0.144-0.507-0.176
		c-0.177-0.028-0.375-0.044-0.585-0.044h-1.479v2.273h1.069C266.871,16.524,267.103,16.524,267.345,16.512z"/>
</g>
</svg>
